<svg width="627" height="644" viewBox="0 0 627 644" fill="none" xmlns="http://www.w3.org/2000/svg">
<g opacity="0.35">
<path d="M273.096 172.449C261.219 167.344 246.377 159.6 231.426 147.928C229.762 146.631 228.171 145.338 226.622 144.042C216.502 135.548 211.797 123.359 213.514 111.229C215.38 98.0159 214.95 78.9748 203.684 59.4676C186.605 29.9135 151.017 10.3927 116.893 10.4779C49.0376 10.656 -7.83959 88.3773 14.694 139.981C24.6886 162.888 53.1991 187.215 90.645 188.679C116.424 189.694 136.474 179.474 147.747 171.868C154.105 167.582 162.346 166.069 170.143 167.793C180.332 170.056 191.766 172.016 204.305 173.3C231.552 176.083 255.14 174.723 273.096 172.449Z" fill="#EDD4B2" stroke="#3A3835" stroke-width="15" stroke-miterlimit="10"/>
<path d="M314.761 517.252C312.073 518.759 258.633 549.351 266.545 580.175C268.55 588.003 273.916 593.542 278.921 597.761C318.279 630.971 392.142 632.095 424.879 631.19C471.656 629.893 553.724 627.622 570.027 591.062C575.641 578.48 571.665 565.889 570.426 562.043C558.604 525.262 506.683 515.07 503.926 514.568C440.881 515.459 377.826 516.359 314.781 517.25L314.761 517.252Z" fill="#3A3835"/>
<path d="M317.202 569.922C335.607 577.881 368.269 589.305 410.652 590.172C473.804 591.462 519.852 568.5 537.771 558.383C534.141 535.814 531.162 500.461 540.185 458.942C553.214 399.036 578.275 385.958 590.328 324.476C593.251 309.583 610.732 220.397 567.679 199.665C554.666 193.398 539.468 194.991 527.938 197.679C526.715 196.057 508.921 173.266 478.807 173.942C462.131 174.317 450.362 181.692 445.962 184.772C434.304 164.936 412.108 153.758 391.554 156.515C377.106 158.456 367.636 166.715 363.861 170.472C363.27 169.28 348.751 141.157 324.643 140.75C306.203 140.44 293.399 156.553 285.24 167.134C270.973 185.644 259.842 211.807 261.747 287.856C262.299 309.974 264.061 340.188 269.269 376.138C259.117 364.084 199.33 294.002 170.876 305.132C164.654 307.567 161.988 313.083 160.181 316.823C155.778 325.928 149.078 349.98 209.141 421.698C244.496 463.919 256.77 467.457 280.326 500.619C299.648 527.84 310.766 552.742 317.212 569.912L317.202 569.922Z" fill="#EDD4B2" stroke="#3A3835" stroke-width="15" stroke-miterlimit="10"/>
<path d="M355.191 454.452C360.28 463.216 370.108 469.021 380.861 469.394C394.28 469.863 407.015 461.803 411.224 449.627" stroke="#3A3835" stroke-width="20" stroke-miterlimit="10" stroke-linecap="round"/>
<path d="M340.272 423.748C350.598 422.989 358.155 414.009 357.15 403.691C356.145 393.373 346.96 385.624 336.633 386.384C326.307 387.143 318.751 396.123 319.756 406.441C320.76 416.759 329.946 424.508 340.272 423.748Z" fill="#3A3835"/>
<path d="M437.993 427.157C448.319 426.398 455.876 417.418 454.871 407.1C453.866 396.782 444.681 389.033 434.355 389.792C424.029 390.552 416.472 399.532 417.477 409.85C418.482 420.168 427.667 427.917 437.993 427.157Z" fill="#3A3835"/>
<path d="M99.9487 85.1477C88.8574 78.922 77.7998 77.8031 72.206 82.0417C67.5939 85.5398 67.8856 91.7812 67.99 94.0443C69.0202 115.77 106.12 131.318 112.222 133.808C119.186 127.629 138.783 108.653 135.175 86.3208C134.613 82.8277 132.729 71.1638 124.818 69.0261C117.697 67.1049 107.129 73.2842 99.9592 85.1469L99.9487 85.1477Z" fill="#3A3835"/>
<path d="M365.525 173.82C398.063 247.379 402.089 309.282 371.138 328.204C369.786 329.036 356.206 337.076 341.864 333.396C313.99 326.235 299.567 278.977 305.738 212.928" stroke="#3A3835" stroke-width="15" stroke-miterlimit="10" stroke-linecap="round"/>
<path d="M445.584 184.14C465.62 230.17 461.313 265.693 456.919 284.411C454.519 294.613 443.229 342.727 418.626 344.27C401.7 345.332 386.939 323.819 382.603 317.06" stroke="#3A3835" stroke-width="15" stroke-miterlimit="10" stroke-linecap="round"/>
<path d="M521.017 191.531C525.824 212.659 541.215 288.248 510.944 332.656C505.688 340.368 496.903 352.844 480.92 355.905C458.172 360.261 437.675 342.292 434.66 339.575" stroke="#3A3835" stroke-width="15" stroke-miterlimit="10" stroke-linecap="round"/>
<path d="M591.277 319.498C584.212 344.337 561.144 360.775 537.825 360.246C518.108 359.8 504.852 347.37 501.739 344.294" stroke="#3A3835" stroke-width="15" stroke-miterlimit="10" stroke-linecap="round"/>
</g>
</svg>
