<svg width="939" height="939" viewBox="0 0 939 939" fill="none" xmlns="http://www.w3.org/2000/svg">
<path d="M588.963 158.008C595.299 191.952 617.992 334.938 530.303 478.478C437.59 630.208 288.543 672.817 257.311 680.986C399.823 761.473 581.229 717.853 670.073 584.721C761.894 447.165 726.984 255.847 588.963 158.008Z" stroke="#D0A98F" stroke-width="2" stroke-miterlimit="10"/>
<path d="M625.817 220.423C641.88 353.342 592.289 492.058 495.237 584.364C481.412 597.477 466.932 609.867 451.526 620.998C480.727 596.887 507.513 569.673 530.423 539.503C600.061 449.484 633.145 333.682 625.817 220.423Z" fill="#D0A98F"/>
<path d="M314.415 689.908C399.519 684.153 478.768 643.459 538.806 583.843C552.766 570.1 565.961 555.653 578.367 540.455C519.699 626.91 421.061 691.098 314.415 689.908Z" fill="#D0A98F"/>
<path d="M562.593 456.838C526.57 538.993 462.484 608.367 383.734 651.231C357.496 665.504 329.757 677.039 301.067 685.201C315.222 680.532 329.203 675.343 342.791 669.283C438.621 627.977 517.62 550.898 562.582 456.813L562.593 456.838Z" fill="#D0A98F"/>
<path d="M696.144 420.64C693.374 490.273 664.247 558.423 616.294 608.973C600.328 625.775 582.466 640.827 562.97 653.38C581.793 639.932 599.216 624.57 614.751 607.542C661.698 556.487 690.319 489.672 696.144 420.64Z" fill="#D0A98F"/>
<path d="M649.277 288.332C653.434 329.005 646.535 370.856 629.872 408.182C631.426 403.321 633.051 398.487 634.435 393.582C644.735 359.481 649.509 323.947 649.277 288.332Z" fill="#D0A98F"/>
</svg>
