<svg width="312" height="312" viewBox="0 0 312 312" fill="none" xmlns="http://www.w3.org/2000/svg">
<path d="M134.68 266.171C110.529 266.171 90.9506 246.593 90.9506 222.442C90.9506 198.291 110.529 178.713 134.68 178.713L178.409 178.713L178.409 222.442C178.409 246.593 158.83 266.171 134.68 266.171Z" stroke="#3A3835" stroke-width="1.84962"/>
<path d="M222.654 90.9248C198.503 90.9248 178.925 110.503 178.925 134.654L178.925 178.383L222.654 178.383C246.805 178.383 266.383 158.805 266.383 134.654C266.383 110.503 246.805 90.9248 222.654 90.9248Z" stroke="#3A3835" stroke-width="1.84962"/>
<path d="M133.654 89.9248C109.503 89.9248 89.9247 109.503 89.9247 133.654C89.9247 157.805 109.503 177.383 133.654 177.383C157.805 177.383 177.383 157.805 177.383 133.654C177.383 109.503 157.805 89.9248 133.654 89.9248Z" fill="#EDD4B2" stroke="#3A3835" stroke-width="1.84962"/>
</svg>
