<svg width="219" height="219" viewBox="0 0 219 219" fill="none" xmlns="http://www.w3.org/2000/svg">
<path opacity="0.5" d="M155.5 10.5L116 87L118 1L107.131 85.9448L80 4.5L99.5 88.5L46.5 20.5L93 93.5L20.5 47L88.5 100.5L4.5 80L87 108L1 120.207L88.5 116.5L11.5 156L92.4432 124.014L34 187.5L98 128L65 208.5L104.762 131.152L102 218L112 131.5L139.5 214L119 129.5L173 198L126 125L198.5 172L130.5 119L215 136.5L132.5 112L218 99.7448L132 103.5L208.5 64L128.5 96L186.5 32.5L123.5 90.5L155.5 10.5Z" stroke="#CAC2B5" stroke-width="2"/>
</svg>
